<svg width="15" height="15" viewBox="0 0 15 15" fill="none" xmlns="http://www.w3.org/2000/svg">
<path d="M6.48376 0.690966C6.78311 -0.230345 8.08652 -0.230344 8.38587 0.690966L9.45544 3.98276C9.58931 4.39479 9.97327 4.67375 10.4065 4.67375H13.8677C14.8364 4.67375 15.2392 5.91336 14.4555 6.48276L11.6553 8.51721C11.3048 8.77185 11.1582 9.22322 11.292 9.63524L12.3616 12.927C12.661 13.8483 11.6065 14.6145 10.8228 14.0451L8.0226 12.0106C7.67211 11.756 7.19752 11.756 6.84703 12.0106L4.04686 14.0451C3.26315 14.6145 2.20867 13.8483 2.50802 12.927L3.57759 9.63524C3.71146 9.22322 3.5648 8.77185 3.21432 8.51721L0.414147 6.48276C-0.369566 5.91336 0.0332093 4.67375 1.00193 4.67375H4.46313C4.89636 4.67375 5.28031 4.39479 5.41419 3.98276L6.48376 0.690966Z" fill="#FF8933"/>
</svg>
