<svg width="44" height="36" viewBox="0 0 44 36" fill="none" xmlns="http://www.w3.org/2000/svg">
<path d="M13.9288 2.76424C14.2968 2.19203 14.9305 1.84615 15.6109 1.84615H29.4068C30.9893 1.84615 31.9449 3.59706 31.0889 4.92806L20.0223 22.1338C19.6543 22.706 19.0206 23.0519 18.3402 23.0519H4.54435C2.96181 23.0519 2.00617 21.301 2.86225 19.97L13.9288 2.76424Z" fill="#165DFF"/>
<path d="M16.4234 25.0172C15.743 25.0172 15.1093 25.3631 14.7413 25.9353L12.0312 30.1489C11.1751 31.4799 12.1307 33.2308 13.7133 33.2308H28.3892C29.0695 33.2308 29.7032 32.8849 30.0713 32.3127L41.1378 15.1069C41.9939 13.7759 41.0382 12.025 39.4557 12.025H29.8698C29.1894 12.025 28.5557 12.3709 28.1877 12.9431L21.0122 24.0991C20.6441 24.6714 20.0105 25.0172 19.3301 25.0172H16.4234Z" fill="#30A9EE"/>
</svg>
